<svg xmlns="http://www.w3.org/2000/svg" width="16" height="16" viewBox="0 0 16 16">
  <path id="instagram" d="M14.045,0A1.956,1.956,0,0,1,16,1.955v12.09A1.956,1.956,0,0,1,14.045,16H1.955A1.956,1.956,0,0,1,0,14.045V1.955A1.956,1.956,0,0,1,1.955,0h12.09ZM8,2.531c-1.485,0-1.671.006-2.255.033a4.013,4.013,0,0,0-1.327.254,2.8,2.8,0,0,0-1.6,1.6,4.015,4.015,0,0,0-.254,1.327c-.027.583-.033.77-.033,2.255s.006,1.671.033,2.255a4.015,4.015,0,0,0,.254,1.327,2.8,2.8,0,0,0,1.6,1.6,4.014,4.014,0,0,0,1.327.254c.583.027.77.033,2.255.033s1.671-.006,2.255-.033a4.014,4.014,0,0,0,1.327-.254,2.8,2.8,0,0,0,1.6-1.6,4.014,4.014,0,0,0,.254-1.327c.027-.583.033-.77.033-2.255s-.006-1.671-.033-2.255a4.014,4.014,0,0,0-.254-1.327,2.8,2.8,0,0,0-1.6-1.6,4.013,4.013,0,0,0-1.327-.254c-.583-.027-.77-.033-2.255-.033Zm0,.985c1.46,0,1.633.006,2.21.032a3.028,3.028,0,0,1,1.015.188,1.811,1.811,0,0,1,1.038,1.038,3.026,3.026,0,0,1,.188,1.015c.026.577.032.75.032,2.21s-.006,1.633-.032,2.21a3.026,3.026,0,0,1-.188,1.015,1.811,1.811,0,0,1-1.038,1.038,3.026,3.026,0,0,1-1.015.188c-.577.026-.75.032-2.21.032s-1.633-.006-2.21-.032a3.026,3.026,0,0,1-1.015-.188,1.811,1.811,0,0,1-1.038-1.038,3.027,3.027,0,0,1-.188-1.015c-.026-.577-.032-.75-.032-2.21s.006-1.633.032-2.21a3.027,3.027,0,0,1,.188-1.015A1.811,1.811,0,0,1,4.775,3.737,3.028,3.028,0,0,1,5.79,3.548c.577-.026.75-.032,2.21-.032ZM8,5.192A2.808,2.808,0,1,0,10.808,8,2.808,2.808,0,0,0,8,5.192ZM8,9.823A1.823,1.823,0,1,1,9.823,8,1.823,1.823,0,0,1,8,9.823Zm3.576-4.742a.656.656,0,1,1-.656-.656.656.656,0,0,1,.656.656Z" transform="translate(0 0)" fill="#f3f3f3" fill-rule="evenodd"/>
</svg>
