<svg xmlns="http://www.w3.org/2000/svg" width="16" height="16" viewBox="0 0 16 16">
  <path id="linkedin" d="M14.045,0A1.956,1.956,0,0,1,16,1.955v12.09A1.956,1.956,0,0,1,14.045,16H1.955A1.956,1.956,0,0,1,0,14.045V1.955A1.956,1.956,0,0,1,1.955,0h12.09ZM5.014,13.227V6.174H2.669v7.054Zm8.454,0V9.182c0-2.167-1.157-3.175-2.7-3.175A2.329,2.329,0,0,0,8.656,7.172v-1H6.312c.031.662,0,7.054,0,7.054H8.656V9.288a1.6,1.6,0,0,1,.077-.572,1.283,1.283,0,0,1,1.2-.857c.848,0,1.188.647,1.188,1.595v3.774h2.345ZM3.858,2.773A1.222,1.222,0,1,0,3.827,5.21h.015a1.223,1.223,0,1,0,.016-2.438Z" transform="translate(0 0)" fill="#f3f3f3" fill-rule="evenodd"/>
</svg>
