<svg xmlns="http://www.w3.org/2000/svg" width="16" height="16" viewBox="0 0 16 16">
  <path id="youtube" d="M14.045,0A1.956,1.956,0,0,1,16,1.955v12.09A1.956,1.956,0,0,1,14.045,16H1.955A1.956,1.956,0,0,1,0,14.045V1.955A1.956,1.956,0,0,1,1.955,0h12.09ZM13.39,5.488a1.409,1.409,0,0,0-.995-.995A33.616,33.616,0,0,0,8,4.259a33.616,33.616,0,0,0-4.4.235,1.409,1.409,0,0,0-.995.995A14.644,14.644,0,0,0,2.375,8.2,14.642,14.642,0,0,0,2.61,10.9,1.409,1.409,0,0,0,3.6,11.9a33.629,33.629,0,0,0,4.4.235,33.629,33.629,0,0,0,4.4-.235,1.409,1.409,0,0,0,.995-.995A14.642,14.642,0,0,0,13.625,8.2,14.644,14.644,0,0,0,13.39,5.488Zm-6.515,4.4V6.509L9.8,8.2Z" transform="translate(0 0)" fill="#f3f3f3" fill-rule="evenodd"/>
</svg>
